<svg xmlns="http://www.w3.org/2000/svg" viewBox="0 0 180 260" width="180" height="260">
  
  <line x1="90" y1="0" x2="90" y2="22" stroke="#8B6B3D" stroke-width="3"></line>
  <circle cx="90" cy="28" r="10" fill="none" stroke="#1A1A1A" stroke-width="3"></circle>
  
  <path d="M10,40 L10,220 L90,252 L170,220 L170,40 Z" fill="#F1AD2B" stroke="#1A1A1A" stroke-width="4"></path>
  
  <path d="M20,50 L20,215 L90,242 L160,215 L160,50 Z" fill="none" stroke="#1A1A1A" stroke-width="2" stroke-dasharray="5,4" opacity="0.4"></path>
  
  <text font-family="sans-serif" font-size="14" fill="#555" text-anchor="middle" x="90" y="88">WAS $99.00</text>
  <line x1="38" y1="84" x2="142" y2="84" stroke="#E23A29" stroke-width="2.5"></line>
  
  <text font-family="sans-serif" font-weight="900" font-size="16" fill="#E23A29" text-anchor="middle" x="90" y="116">NOW ONLY</text>
  
  <text font-family="sans-serif" font-weight="900" font-size="52" fill="#1A1A1A" text-anchor="middle" x="90" y="178">FREE</text>
  
  <text font-family="sans-serif" font-size="11" fill="#555" text-anchor="middle" x="90" y="200">with SMU student ID</text>
  
  <g transform="translate(34, 212)">
    <rect x="0" y="0" width="2.5" height="22" fill="#1A1A1A"></rect>
    <rect x="4" y="0" width="1" height="22" fill="#1A1A1A"></rect>
    <rect x="7" y="0" width="3" height="22" fill="#1A1A1A"></rect>
    <rect x="12" y="0" width="1.5" height="22" fill="#1A1A1A"></rect>
    <rect x="15" y="0" width="2.5" height="22" fill="#1A1A1A"></rect>
    <rect x="20" y="0" width="1" height="22" fill="#1A1A1A"></rect>
    <rect x="23" y="0" width="3" height="22" fill="#1A1A1A"></rect>
    <rect x="28" y="0" width="1.5" height="22" fill="#1A1A1A"></rect>
    <rect x="31" y="0" width="2.5" height="22" fill="#1A1A1A"></rect>
    <rect x="36" y="0" width="1" height="22" fill="#1A1A1A"></rect>
    <rect x="39" y="0" width="3" height="22" fill="#1A1A1A"></rect>
    <rect x="44" y="0" width="1.5" height="22" fill="#1A1A1A"></rect>
    <rect x="47" y="0" width="2.5" height="22" fill="#1A1A1A"></rect>
    <rect x="52" y="0" width="1" height="22" fill="#1A1A1A"></rect>
    <rect x="55" y="0" width="3" height="22" fill="#1A1A1A"></rect>
    <rect x="60" y="0" width="1.5" height="22" fill="#1A1A1A"></rect>
    <rect x="63" y="0" width="2.5" height="22" fill="#1A1A1A"></rect>
    <rect x="68" y="0" width="1" height="22" fill="#1A1A1A"></rect>
    <rect x="71" y="0" width="3" height="22" fill="#1A1A1A"></rect>
    <rect x="76" y="0" width="1.5" height="22" fill="#1A1A1A"></rect>
    <rect x="79" y="0" width="2.5" height="22" fill="#1A1A1A"></rect>
    <rect x="84" y="0" width="1" height="22" fill="#1A1A1A"></rect>
    <rect x="87" y="0" width="3" height="22" fill="#1A1A1A"></rect>
    <rect x="92" y="0" width="1.5" height="22" fill="#1A1A1A"></rect>
    <rect x="95" y="0" width="2.5" height="22" fill="#1A1A1A"></rect>
    <rect x="100" y="0" width="1" height="22" fill="#1A1A1A"></rect>
    <rect x="103" y="0" width="3" height="22" fill="#1A1A1A"></rect>
    <rect x="108" y="0" width="1.5" height="22" fill="#1A1A1A"></rect>
  </g>
</svg>