<svg xmlns="http://www.w3.org/2000/svg" viewBox="0 0 500 80" width="500" height="80">
  
  <line x1="0" y1="12" x2="500" y2="12" stroke="#8B6B3D" stroke-width="2"></line>
  
  <polygon points="10,12 50,12 30,68" fill="#E23A29" stroke="#1A1A1A" stroke-width="2"></polygon>
  <polygon points="55,12 95,12 75,68" fill="#F1AD2B" stroke="#1A1A1A" stroke-width="2"></polygon>
  <polygon points="100,12 140,12 120,68" fill="#3C73D6" stroke="#1A1A1A" stroke-width="2"></polygon>
  <polygon points="145,12 185,12 165,68" fill="#49AD77" stroke="#1A1A1A" stroke-width="2"></polygon>
  <polygon points="190,12 230,12 210,68" fill="#EA5A89" stroke="#1A1A1A" stroke-width="2"></polygon>
  <polygon points="235,12 275,12 255,68" fill="#FF7828" stroke="#1A1A1A" stroke-width="2"></polygon>
  <polygon points="280,12 320,12 300,68" fill="#E23A29" stroke="#1A1A1A" stroke-width="2"></polygon>
  <polygon points="325,12 365,12 345,68" fill="#F1AD2B" stroke="#1A1A1A" stroke-width="2"></polygon>
  <polygon points="370,12 410,12 390,68" fill="#3C73D6" stroke="#1A1A1A" stroke-width="2"></polygon>
  <polygon points="415,12 455,12 435,68" fill="#49AD77" stroke="#1A1A1A" stroke-width="2"></polygon>
  <polygon points="460,12 500,12 480,68" fill="#EA5A89" stroke="#1A1A1A" stroke-width="2"></polygon>
</svg>