<svg xmlns="http://www.w3.org/2000/svg" viewBox="0 0 180 220" width="180" height="220">
  
  <path d="M90,30 C90,10 105,5 108,8" fill="none" stroke="#8B5E3C" stroke-width="4" stroke-linecap="round"></path>
  
  <path d="M90,30 C75,15 55,20 60,35 C65,48 85,44 90,30 Z" fill="#49AD77" stroke="#1A1A1A" stroke-width="2.5"></path>
  
  <circle cx="74" cy="65" r="24" fill="#EA5A89" stroke="#1A1A1A" stroke-width="3"></circle>
  <circle cx="118" cy="65" r="24" fill="#EA5A89" stroke="#1A1A1A" stroke-width="3"></circle>
  
  <circle cx="52" cy="108" r="24" fill="#EA5A89" stroke="#1A1A1A" stroke-width="3"></circle>
  <circle cx="96" cy="108" r="24" fill="#EA5A89" stroke="#1A1A1A" stroke-width="3"></circle>
  <circle cx="140" cy="108" r="24" fill="#EA5A89" stroke="#1A1A1A" stroke-width="3"></circle>
  
  <circle cx="74" cy="150" r="24" fill="#EA5A89" stroke="#1A1A1A" stroke-width="3"></circle>
  <circle cx="118" cy="150" r="24" fill="#EA5A89" stroke="#1A1A1A" stroke-width="3"></circle>
  
  <circle cx="96" cy="192" r="24" fill="#EA5A89" stroke="#1A1A1A" stroke-width="3"></circle>
  
  <circle cx="64" cy="55" r="8" fill="white" opacity="0.3"></circle>
  <circle cx="108" cy="55" r="8" fill="white" opacity="0.3"></circle>
  <circle cx="42" cy="98" r="8" fill="white" opacity="0.3"></circle>
  <circle cx="86" cy="98" r="8" fill="white" opacity="0.3"></circle>
  <circle cx="130" cy="98" r="8" fill="white" opacity="0.3"></circle>
  <circle cx="64" cy="140" r="8" fill="white" opacity="0.3"></circle>
  <circle cx="108" cy="140" r="8" fill="white" opacity="0.3"></circle>
  <circle cx="86" cy="182" r="8" fill="white" opacity="0.3"></circle>
</svg>