<svg xmlns="http://www.w3.org/2000/svg" viewBox="0 0 220 200" width="220" height="200">
  
  <path d="M50,70 C50,20 88,10 110,10 C132,10 170,20 170,70" fill="none" stroke="#E23A29" stroke-width="10" stroke-linecap="round"></path>
  
  <path d="M20,80 L40,185 L180,185 L200,80 Z" fill="#3C73D6" stroke="#1A1A1A" stroke-width="4"></path>
  
  <line x1="24" y1="108" x2="196" y2="108" stroke="#1A1A1A" stroke-width="2.5" opacity="0.35"></line>
  <line x1="28" y1="136" x2="192" y2="136" stroke="#1A1A1A" stroke-width="2.5" opacity="0.35"></line>
  <line x1="32" y1="162" x2="188" y2="162" stroke="#1A1A1A" stroke-width="2.5" opacity="0.35"></line>
  
  <line x1="55" y1="80" x2="46" y2="185" stroke="#1A1A1A" stroke-width="2.5" opacity="0.35"></line>
  <line x1="90" y1="80" x2="88" y2="185" stroke="#1A1A1A" stroke-width="2.5" opacity="0.35"></line>
  <line x1="125" y1="80" x2="130" y2="185" stroke="#1A1A1A" stroke-width="2.5" opacity="0.35"></line>
  <line x1="160" y1="80" x2="172" y2="185" stroke="#1A1A1A" stroke-width="2.5" opacity="0.35"></line>
  
  <rect x="16" y="76" width="188" height="16" rx="6" fill="#E23A29" stroke="#1A1A1A" stroke-width="3.5"></rect>
  
  <circle cx="50" cy="72" r="10" fill="#F1AD2B" stroke="#1A1A1A" stroke-width="3"></circle>
  <circle cx="170" cy="72" r="10" fill="#F1AD2B" stroke="#1A1A1A" stroke-width="3"></circle>
</svg>