<svg xmlns="http://www.w3.org/2000/svg" viewBox="0 0 280 240" width="280" height="240">
  
  
  <circle cx="80" cy="78" r="28" fill="#E23A29" stroke="#1A1A1A" stroke-width="3"></circle>
  <path d="M80,52 C80,40 86,34 88,32" fill="none" stroke="#49AD77" stroke-width="4" stroke-linecap="round"></path>
  
  <circle cx="140" cy="72" r="30" fill="#FF7828" stroke="#1A1A1A" stroke-width="3"></circle>
  <ellipse cx="140" cy="44" rx="6" ry="4" fill="#49AD77" stroke="#1A1A1A" stroke-width="2"></ellipse>
  
  <path d="M175,80 C175,80 200,55 215,60 C225,65 215,82 200,88 C185,94 175,80 175,80 Z" fill="#F1AD2B" stroke="#1A1A1A" stroke-width="3"></path>
  
  <circle cx="55" cy="92" r="14" fill="#EA5A89" stroke="#1A1A1A" stroke-width="2.5"></circle>
  <circle cx="38" cy="80" r="14" fill="#EA5A89" stroke="#1A1A1A" stroke-width="2.5"></circle>
  
  <path d="M62,115 C62,80 94,66 140,66 C186,66 218,80 218,115" fill="none" stroke="#8B6B3D" stroke-width="10" stroke-linecap="round"></path>
  
  <path d="M20,118 L40,228 L240,228 L260,118 Z" fill="#C8883C" stroke="#1A1A1A" stroke-width="4"></path>
  
  <line x1="24" y1="148" x2="256" y2="148" stroke="#8B5E2C" stroke-width="2" opacity="0.6"></line>
  <line x1="28" y1="178" x2="252" y2="178" stroke="#8B5E2C" stroke-width="2" opacity="0.6"></line>
  <line x1="32" y1="206" x2="248" y2="206" stroke="#8B5E2C" stroke-width="2" opacity="0.6"></line>
  
  <line x1="60" y1="118" x2="52" y2="228" stroke="#8B5E2C" stroke-width="2" opacity="0.4"></line>
  <line x1="100" y1="118" x2="98" y2="228" stroke="#8B5E2C" stroke-width="2" opacity="0.4"></line>
  <line x1="140" y1="118" x2="140" y2="228" stroke="#8B5E2C" stroke-width="2" opacity="0.4"></line>
  <line x1="180" y1="118" x2="182" y2="228" stroke="#8B5E2C" stroke-width="2" opacity="0.4"></line>
  <line x1="220" y1="118" x2="228" y2="228" stroke="#8B5E2C" stroke-width="2" opacity="0.4"></line>
  
  <rect x="16" y="112" width="248" height="16" rx="6" fill="#A06828" stroke="#1A1A1A" stroke-width="3.5"></rect>
</svg>