<svg xmlns="http://www.w3.org/2000/svg" viewBox="0 0 220 160" width="220" height="160">
  
  <path d="M30,130 C30,130 40,60 100,30 C150,5 195,25 200,50 C205,70 180,80 160,72 C140,64 125,55 100,65 C70,78 60,125 55,135 Z" fill="#F1AD2B" stroke="#1A1A1A" stroke-width="4"></path>
  
  <path d="M55,110 C60,80 80,55 110,42" fill="none" stroke="white" stroke-width="6" stroke-linecap="round" opacity="0.45"></path>
  
  <path d="M30,130 C20,138 18,148 28,145 C38,142 55,135 55,135 Z" fill="#C88A00" stroke="#1A1A1A" stroke-width="3"></path>
  
  <path d="M200,50 C208,42 212,32 204,28 C196,24 190,30 195,45 Z" fill="#C88A00" stroke="#1A1A1A" stroke-width="3"></path>
</svg>