<?xml version="1.0" encoding="iso-8859-1"?>
<svg version="1.1" xmlns="http://www.w3.org/2000/svg" xmlns:xlink="http://www.w3.org/1999/xlink" x="0px" y="0px" viewBox="0 0 131 70" style="enable-background:new 0 0 131 70;" xml:space="preserve">
<g id="d-SMU_Full_Colour">
	<g>
		<g>
			<path style="fill:#141B4D;" d="M36.417,36.487c-0.339-0.162-0.365-0.254-0.365-0.881c0-1.161,0.097-2.088,0.121-2.459c0.024-0.256,0.073-0.371,0.196-0.371c0.147,0,0.167,0.071,0.167,0.257c0,0.206,0,0.532,0.076,0.855c0.366,1.717,1.973,2.367,3.606,2.367c2.336,0,3.483-1.601,3.483-3.086c0-1.6-0.707-2.53-2.801-4.175l-1.099-0.859c-2.581-2.016-3.164-3.454-3.164-5.03c0-2.482,1.949-4.175,5.042-4.175c0.949,0,1.656,0.091,2.265,0.23c0.462,0.093,0.659,0.117,0.854,0.117c0.194,0,0.242,0.046,0.242,0.16c0,0.118-0.098,0.883-0.098,2.46c0,0.371-0.049,0.533-0.169,0.533c-0.147,0-0.17-0.116-0.197-0.301c-0.023-0.277-0.17-0.906-0.316-1.16c-0.146-0.254-0.802-1.228-3.046-1.228c-1.679,0-2.994,0.996-2.994,2.689c0,1.322,0.681,2.111,2.971,3.894l0.681,0.515c2.876,2.154,3.557,3.592,3.557,5.447c0,0.951-0.39,2.714-2.072,3.849c-1.046,0.696-2.362,0.975-3.676,0.975C38.536,37.113,37.416,36.951,36.417,36.487"/>
			<path style="fill:#141B4D;" d="M68.442,34.045c0.098,0.835,0.267,2.133,1.314,2.459c0.71,0.21,1.341,0.21,1.585,0.21c0.122,0,0.192,0.022,0.192,0.113c0,0.143-0.218,0.211-0.51,0.211c-0.535,0-3.168-0.068-4.07-0.142c-0.558-0.044-0.679-0.112-0.679-0.23c0-0.093,0.048-0.142,0.17-0.162c0.125-0.023,0.146-0.417,0.097-0.835l-1.172-11.966H65.3L59.331,35.76c-0.513,1.025-0.586,1.231-0.806,1.231c-0.169,0-0.292-0.232-0.755-1.067c-0.631-1.135-2.727-5.149-2.848-5.378c-0.22-0.418-2.951-5.985-3.219-6.61h-0.098l-0.972,10.761c-0.023,0.369-0.023,0.789-0.023,1.183c0,0.349,0.267,0.646,0.634,0.718c0.412,0.093,0.778,0.117,0.923,0.117c0.098,0,0.197,0.045,0.197,0.113c0,0.164-0.149,0.211-0.442,0.211c-0.9,0-2.07-0.068-2.265-0.068c-0.218,0-1.387,0.068-2.044,0.068c-0.243,0-0.416-0.048-0.416-0.211c0-0.068,0.125-0.113,0.246-0.113c0.193,0,0.363,0,0.728-0.071c0.806-0.139,0.88-1.043,0.976-1.925l1.754-15.121c0.049-0.255,0.121-0.417,0.268-0.417c0.147,0,0.245,0.093,0.367,0.348l7.452,14.588l7.162-14.565c0.097-0.209,0.194-0.371,0.367-0.371c0.17,0,0.243,0.184,0.292,0.626L68.442,34.045z"/>
			<path style="fill:#141B4D;" d="M72.769,25.982c0-3.619,0-4.269-0.05-5.01c-0.048-0.789-0.242-1.159-1.045-1.321c-0.197-0.048-0.61-0.069-0.829-0.069c-0.1,0-0.197-0.045-0.197-0.142c0-0.138,0.124-0.183,0.392-0.183c1.096,0,2.582,0.07,2.801,0.07c0.219,0,1.679-0.07,2.412-0.07c0.267,0,0.389,0.045,0.389,0.183c0,0.097-0.097,0.142-0.194,0.142c-0.171,0-0.318,0.022-0.61,0.069c-0.656,0.093-0.851,0.51-0.899,1.321c-0.049,0.742-0.049,1.392-0.049,5.01v3.245c0,3.341,0.779,4.778,1.826,5.729c1.195,1.066,2.291,1.277,3.678,1.277c1.486,0,2.949-0.673,3.824-1.671c1.122-1.322,1.414-3.294,1.414-5.681v-2.899c0-3.619,0-4.269-0.049-5.01c-0.05-0.789-0.243-1.159-1.048-1.321c-0.193-0.048-0.608-0.069-0.827-0.069c-0.098,0-0.194-0.045-0.194-0.142c0-0.138,0.122-0.183,0.389-0.183c1.097,0,2.435,0.07,2.582,0.07c0.17,0,1.319-0.07,2.045-0.07c0.268,0,0.392,0.045,0.392,0.183c0,0.097-0.098,0.142-0.194,0.142c-0.171,0-0.317,0-0.61,0.069c-0.657,0.115-0.851,0.51-0.902,1.321c-0.046,0.742-0.046,1.392-0.046,5.01v2.481c0,2.506-0.295,5.287-2.241,6.935c-1.755,1.483-3.583,1.715-5.023,1.715c-0.826,0-3.286-0.091-5.015-1.647c-1.195-1.088-2.12-2.711-2.12-6.098V25.982z"/>
			<polygon style="fill:#141B4D;" points="22.863,37.056 17.987,32.598 17.987,32.593 17.983,32.594 17.982,32.593 17.982,32.598 13.102,37.056 17.98,35.483 17.989,35.483"/>
			<polygon style="fill:#141B4D;" points="17.987,32.586 19.594,28.175 23.181,27.743"/>
			<polygon style="fill:#141B4D;" points="26.809,29.182 23.181,27.743 23.079,21.812"/>
			<polygon style="fill:#141B4D;" points="23.966,19.142 27.592,19.14 23.082,21.816"/>
			<polygon style="fill:#8A704C;" points="17.982,32.586 16.375,28.175 12.787,27.743"/>
			<polygon style="fill:#8A704C;" points="9.156,29.182 12.786,27.743 12.888,21.812"/>
			<polygon style="fill:#8A704C;" points="11.999,19.142 8.378,19.14 12.888,21.816"/>
			<path style="fill:#8A704C;" d="M30.41,10.276c-3.235,3.046-5.457,1.708-6.599,1.462c-0.601-0.242-1.356-0.386-2.175-0.386c-1.976,0-3.578,0.842-3.578,1.879c0,0.376,0.211,0.725,0.573,1.016c0.37-0.344,0.943-0.62,1.627-0.781c0.698-0.12,1.878-0.214,3.286,0.142c0.125,0.035,0.261,0.075,0.407,0.109c0.17,0.053,0.322,0.088,0.455,0.115c0.061,0.013,0.11,0.026,0.174,0.035c3.662,0.811,5.859-1.025,5.859-1.025L30.41,10.276z"/>
			<path style="fill:#141B4D;" d="M17.659,42.265c0,0-2.039-0.006-3.038-0.493c-1.81-0.872-2.155-3.553-2.383-5.767c-0.024-0.243-1.709-0.774-2.509-1.507c-1.303-1.191-1.104-4.905-1.104-5.142c0-0.241-2.108-1.274-2.108-3.574c0-0.971,0.018-6.406,0.018-6.406c-1.374-1.703-2.249-1.726-3.346-1.383c-1.361,0.435-1.754,1.442-3.173,1.643C0.015,19.948,0,36.146,0,36.146c0,4.991,0.917,8.438,6.033,12.275c4.743,3.556,8.418,3.468,11.621,9.293C17.709,57.807,17.674,42.265,17.659,42.265"/>
		</g>
	</g>
</g>
</svg>
