<svg xmlns="http://www.w3.org/2000/svg" viewBox="0 0 280 240" width="280" height="240">
  
  <rect x="185" y="20" width="70" height="14" rx="7" fill="#EA5A89" stroke="#1A1A1A" stroke-width="3"></rect>
  
  <path d="M30,50 L30,170 L220,170 L240,50 Z" fill="#F1AD2B" stroke="#1A1A1A" stroke-width="4"></path>
  
  <line x1="32" y1="85" x2="235" y2="85" stroke="#1A1A1A" stroke-width="2" opacity="0.4"></line>
  <line x1="34" y1="120" x2="231" y2="120" stroke="#1A1A1A" stroke-width="2" opacity="0.4"></line>
  <line x1="36" y1="150" x2="228" y2="150" stroke="#1A1A1A" stroke-width="2" opacity="0.4"></line>
  
  <line x1="66" y1="50" x2="56" y2="170" stroke="#1A1A1A" stroke-width="2" opacity="0.4"></line>
  <line x1="103" y1="50" x2="98" y2="170" stroke="#1A1A1A" stroke-width="2" opacity="0.4"></line>
  <line x1="140" y1="50" x2="140" y2="170" stroke="#1A1A1A" stroke-width="2" opacity="0.4"></line>
  <line x1="177" y1="50" x2="183" y2="170" stroke="#1A1A1A" stroke-width="2" opacity="0.4"></line>
  <line x1="214" y1="50" x2="225" y2="170" stroke="#1A1A1A" stroke-width="2" opacity="0.4"></line>
  
  <rect x="25" y="168" width="220" height="12" rx="4" fill="#E23A29" stroke="#1A1A1A" stroke-width="3"></rect>
  
  <path d="M30,178 L15,220" stroke="#1A1A1A" stroke-width="5" stroke-linecap="round"></path>
  
  <path d="M245,178 L250,220" stroke="#1A1A1A" stroke-width="5" stroke-linecap="round"></path>
  
  <circle cx="15" cy="224" r="16" fill="#3C73D6" stroke="#1A1A1A" stroke-width="3.5"></circle>
  <circle cx="15" cy="224" r="6" fill="white" stroke="#1A1A1A" stroke-width="2"></circle>
  
  <circle cx="250" cy="224" r="16" fill="#3C73D6" stroke="#1A1A1A" stroke-width="3.5"></circle>
  <circle cx="250" cy="224" r="6" fill="white" stroke="#1A1A1A" stroke-width="2"></circle>
  
  <rect x="30" y="46" width="58" height="18" rx="4" fill="#FF7828" stroke="#1A1A1A" stroke-width="2.5"></rect>
</svg>