<svg xmlns="http://www.w3.org/2000/svg" viewBox="0 0 360 160" width="360" height="160">
  
  <rect x="0" y="0" width="360" height="160" rx="12" fill="white" stroke="#1A1A1A" stroke-width="3"></rect>
  
  <rect x="0" y="0" width="100" height="160" rx="12" fill="#F1AD2B" stroke="none"></rect>
  <rect x="88" y="0" width="12" height="160" fill="#F1AD2B"></rect>
  
  <circle cx="100" cy="20" r="10" fill="white"></circle>
  <circle cx="100" cy="50" r="10" fill="white"></circle>
  <circle cx="100" cy="80" r="10" fill="white"></circle>
  <circle cx="100" cy="110" r="10" fill="white"></circle>
  <circle cx="100" cy="140" r="10" fill="white"></circle>
  
  <line x1="100" y1="0" x2="100" y2="160" stroke="#1A1A1A" stroke-width="1.5" stroke-dasharray="4,3" opacity="0.4"></line>
  
  <text font-family="sans-serif" font-weight="900" font-size="36" fill="#E23A29" text-anchor="middle" x="50" y="75">20</text>
  <text font-family="sans-serif" font-weight="900" font-size="14" fill="#1A1A1A" text-anchor="middle" x="50" y="95">%</text>
  <text font-family="sans-serif" font-size="10" fill="#1A1A1A" text-anchor="middle" x="50" y="112">OFF</text>
  
  <text font-family="sans-serif" font-weight="900" font-size="18" fill="#1A1A1A" x="118" y="45">VIVACE 2026</text>
  <text font-family="sans-serif" font-size="12" fill="#555" x="118" y="65">Exclusive CCA Fair Coupon</text>
  <line x1="118" y1="78" x2="344" y2="78" stroke="#EEE" stroke-width="1.5"></line>
  <text font-family="sans-serif" font-size="11" fill="#888" x="118" y="96">Valid: Event Day Only</text>
  <text font-family="sans-serif" font-size="11" fill="#888" x="118" y="112">Min. spend: $0</text>
  <text font-family="sans-serif" font-size="11" fill="#888" x="118" y="128">Code: VIVACE2026</text>
  
  <polygon points="320,10 330,28 348,18 342,36 358,32 348,46 360,50 346,56 352,72 336,64 330,80 320,66 310,80 304,64 288,72 294,56 280,50 292,46 282,32 298,36 292,18 310,28" fill="#E23A29" opacity="0.15" transform="scale(0.55) translate(340,-10)"></polygon>
</svg>