<svg xmlns="http://www.w3.org/2000/svg" viewBox="0 0 160 190" width="160" height="190">
  
  <path d="M80,175 C45,155 15,120 15,85 C15,55 40,38 65,42 C72,43 78,48 80,48 C82,48 88,43 95,42 C120,38 145,55 145,85 C145,120 115,155 80,175 Z" fill="#E23A29" stroke="#1A1A1A" stroke-width="4"></path>
  
  <ellipse cx="55" cy="75" rx="4" ry="5" fill="#F1AD2B"></ellipse>
  <ellipse cx="78" cy="68" rx="4" ry="5" fill="#F1AD2B"></ellipse>
  <ellipse cx="102" cy="75" rx="4" ry="5" fill="#F1AD2B"></ellipse>
  <ellipse cx="115" cy="100" rx="4" ry="5" fill="#F1AD2B"></ellipse>
  <ellipse cx="44" cy="100" rx="4" ry="5" fill="#F1AD2B"></ellipse>
  <ellipse cx="65" cy="118" rx="4" ry="5" fill="#F1AD2B"></ellipse>
  <ellipse cx="95" cy="118" rx="4" ry="5" fill="#F1AD2B"></ellipse>
  <ellipse cx="80" cy="140" rx="4" ry="5" fill="#F1AD2B"></ellipse>
  <ellipse cx="55" cy="140" rx="4" ry="5" fill="#F1AD2B"></ellipse>
  <ellipse cx="105" cy="140" rx="4" ry="5" fill="#F1AD2B"></ellipse>
  
  <ellipse cx="55" cy="72" rx="14" ry="20" fill="white" opacity="0.22" transform="rotate(-15,55,72)"></ellipse>
  
  <path d="M80,48 C70,30 55,20 50,28 C58,36 62,44 65,42" fill="#49AD77" stroke="#1A1A1A" stroke-width="2.5"></path>
  <path d="M80,48 C80,25 70,10 78,12 C84,22 82,38 80,48" fill="#49AD77" stroke="#1A1A1A" stroke-width="2.5"></path>
  <path d="M80,48 C90,30 105,20 110,28 C102,36 98,44 95,42" fill="#49AD77" stroke="#1A1A1A" stroke-width="2.5"></path>
</svg>