<svg xmlns="http://www.w3.org/2000/svg" viewBox="0 0 240 160" width="240" height="160">
  
  <path d="M20,155 A110,130 0 0,1 220,155 Z" fill="#49AD77" stroke="#1A1A1A" stroke-width="4"></path>
  
  <path d="M30,155 A100,120 0 0,1 210,155 Z" fill="#E8F5E0" stroke="none"></path>
  
  <path d="M40,155 A90,108 0 0,1 200,155 Z" fill="#E23A29" stroke="none"></path>
  
  <ellipse cx="80" cy="130" rx="5" ry="8" fill="#1A1A1A" transform="rotate(-15,80,130)"></ellipse>
  <ellipse cx="110" cy="115" rx="5" ry="8" fill="#1A1A1A" transform="rotate(5,110,115)"></ellipse>
  <ellipse cx="140" cy="118" rx="5" ry="8" fill="#1A1A1A" transform="rotate(-5,140,118)"></ellipse>
  <ellipse cx="168" cy="132" rx="5" ry="8" fill="#1A1A1A" transform="rotate(12,168,132)"></ellipse>
  <ellipse cx="95" cy="148" rx="4" ry="7" fill="#1A1A1A" transform="rotate(-8,95,148)"></ellipse>
  <ellipse cx="155" cy="146" rx="4" ry="7" fill="#1A1A1A" transform="rotate(8,155,146)"></ellipse>
  
  <path d="M20,155 A110,130 0 0,1 220,155 Z" fill="none" stroke="#1A1A1A" stroke-width="4"></path>
</svg>