<svg xmlns="http://www.w3.org/2000/svg" viewBox="0 0 200 280" width="200" height="280">
  
  <rect x="10" y="10" width="180" height="260" rx="8" fill="#3C73D6" stroke="#1A1A1A" stroke-width="4"></rect>
  
  <rect x="10" y="10" width="180" height="55" rx="8" fill="#E23A29" stroke="none"></rect>
  <rect x="10" y="46" width="180" height="19" fill="#E23A29"></rect>
  
  <rect x="18" y="58" width="164" height="48" rx="6" fill="#F1AD2B" stroke="#1A1A1A" stroke-width="2.5"></rect>
  <text font-family="sans-serif" font-weight="900" font-size="28" fill="#1A1A1A" text-anchor="middle" x="100" y="92" letter-spacing="-1">VIVACE-O&#39;s</text>
  
  <ellipse cx="100" cy="170" rx="65" ry="38" fill="#FFF8F0" stroke="#1A1A1A" stroke-width="2.5"></ellipse>
  <ellipse cx="100" cy="162" rx="55" ry="30" fill="#E8F4FF"></ellipse>
  
  <circle cx="80" cy="155" r="7" fill="#E23A29" stroke="#1A1A1A" stroke-width="1.5"></circle>
  <circle cx="100" cy="150" r="7" fill="#F1AD2B" stroke="#1A1A1A" stroke-width="1.5"></circle>
  <circle cx="120" cy="155" r="7" fill="#49AD77" stroke="#1A1A1A" stroke-width="1.5"></circle>
  <circle cx="88" cy="168" r="7" fill="#EA5A89" stroke="#1A1A1A" stroke-width="1.5"></circle>
  <circle cx="112" cy="168" r="7" fill="#FF7828" stroke="#1A1A1A" stroke-width="1.5"></circle>
  
  <path d="M60,175 C65,162 72,158 80,165 C88,172 95,178 100,175 C105,172 112,168 120,172 C128,176 138,178 140,175" fill="none" stroke="white" stroke-width="3" stroke-linecap="round"></path>
  
  <rect x="18" y="218" width="164" height="22" rx="5" fill="#49AD77" stroke="#1A1A1A" stroke-width="2"></rect>
  <text font-family="sans-serif" font-weight="bold" font-size="11" fill="white" text-anchor="middle" x="100" y="233">FREE PRIZE INSIDE!</text>
  
  <polygon points="155,245 160,258 170,248 165,260 177,255 168,264 178,272 166,270 166,283 158,274 152,284 150,271 140,278 143,266 131,268 140,259 132,252 145,253 145,241" fill="#F1AD2B" stroke="#1A1A1A" stroke-width="1.5" transform="scale(0.7) translate(80,100)"></polygon>
</svg>