<svg xmlns="http://www.w3.org/2000/svg" viewBox="0 0 220 380" width="220" height="380">
  
  <path d="M0,18 L11,0 L22,18 L33,0 L44,18 L55,0 L66,18 L77,0 L88,18 L99,0 L110,18 L121,0 L132,18 L143,0 L154,18 L165,0 L176,18 L187,0 L198,18 L209,0 L220,18 L220,350 L209,350 L198,368 L187,350 L176,368 L165,350 L154,368 L143,350 L132,368 L121,350 L110,368 L99,350 L88,368 L77,350 L66,368 L55,350 L44,368 L33,350 L22,368 L11,350 L0,350 Z" fill="white" stroke="#DDDDDD" stroke-width="1"></path>
  
  <text font-family="sans-serif" font-weight="900" font-size="18" fill="#1A1A1A" text-anchor="middle" x="110" y="44">VIVACE MART</text>
  <text font-family="sans-serif" font-size="10" fill="#888" text-anchor="middle" x="110" y="58">SMU Campus · Tel: 9999-0000</text>
  
  <line x1="16" y1="68" x2="204" y2="68" stroke="#BBBBBB" stroke-width="1" stroke-dasharray="4,3"></line>
  
  <text font-family="monospace" font-size="11" fill="#333" x="16" y="88">CCA FAIR PASS</text>
  <text font-family="monospace" font-size="11" fill="#333" text-anchor="end" x="204" y="88">$0.00</text>
  <text font-family="monospace" font-size="11" fill="#333" x="16" y="106">VIVACE T-SHIRT</text>
  <text font-family="monospace" font-size="11" fill="#333" text-anchor="end" x="204" y="106">$18.00</text>
  <text font-family="monospace" font-size="11" fill="#333" x="16" y="124">ACTIVITY PACK x2</text>
  <text font-family="monospace" font-size="11" fill="#333" text-anchor="end" x="204" y="124">$10.00</text>
  <text font-family="monospace" font-size="11" fill="#333" x="16" y="142">LANYARD</text>
  <text font-family="monospace" font-size="11" fill="#333" text-anchor="end" x="204" y="142">$3.00</text>
  
  <line x1="16" y1="152" x2="204" y2="152" stroke="#BBBBBB" stroke-width="1" stroke-dasharray="4,3"></line>
  
  <text font-family="monospace" font-size="11" fill="#555" x="16" y="170">SUBTOTAL</text>
  <text font-family="monospace" font-size="11" fill="#555" text-anchor="end" x="204" y="170">$31.00</text>
  <text font-family="monospace" font-size="11" fill="#E23A29" x="16" y="188">VIVACE DISCOUNT</text>
  <text font-family="monospace" font-size="11" fill="#E23A29" text-anchor="end" x="204" y="188">-$5.00</text>
  <line x1="16" y1="198" x2="204" y2="198" stroke="#1A1A1A" stroke-width="2"></line>
  <text font-family="monospace" font-weight="bold" font-size="14" fill="#1A1A1A" x="16" y="218">TOTAL</text>
  <text font-family="monospace" font-weight="bold" font-size="14" fill="#1A1A1A" text-anchor="end" x="204" y="218">$26.00</text>
  
  <line x1="16" y1="228" x2="204" y2="228" stroke="#BBBBBB" stroke-width="1" stroke-dasharray="4,3"></line>
  
  <text font-family="sans-serif" font-size="11" fill="#888" text-anchor="middle" x="110" y="248">Thank you for attending!</text>
  <text font-family="sans-serif" font-size="10" fill="#888" text-anchor="middle" x="110" y="264">vivace2026.smu.edu.sg</text>
  
  <g transform="translate(28, 278)">
    <rect x="0" y="0" width="3" height="44" fill="#1A1A1A"></rect>
    <rect x="5" y="0" width="1.5" height="44" fill="#1A1A1A"></rect>
    <rect x="9" y="0" width="4" height="44" fill="#1A1A1A"></rect>
    <rect x="15" y="0" width="2" height="44" fill="#1A1A1A"></rect>
    <rect x="19" y="0" width="3" height="44" fill="#1A1A1A"></rect>
    <rect x="24" y="0" width="1.5" height="44" fill="#1A1A1A"></rect>
    <rect x="28" y="0" width="4" height="44" fill="#1A1A1A"></rect>
    <rect x="35" y="0" width="2" height="44" fill="#1A1A1A"></rect>
    <rect x="39" y="0" width="3" height="44" fill="#1A1A1A"></rect>
    <rect x="44" y="0" width="1.5" height="44" fill="#1A1A1A"></rect>
    <rect x="48" y="0" width="4" height="44" fill="#1A1A1A"></rect>
    <rect x="55" y="0" width="2" height="44" fill="#1A1A1A"></rect>
    <rect x="59" y="0" width="3" height="44" fill="#1A1A1A"></rect>
    <rect x="64" y="0" width="1.5" height="44" fill="#1A1A1A"></rect>
    <rect x="68" y="0" width="4" height="44" fill="#1A1A1A"></rect>
    <rect x="74" y="0" width="2" height="44" fill="#1A1A1A"></rect>
    <rect x="78" y="0" width="3" height="44" fill="#1A1A1A"></rect>
    <rect x="83" y="0" width="1.5" height="44" fill="#1A1A1A"></rect>
    <rect x="87" y="0" width="4" height="44" fill="#1A1A1A"></rect>
    <rect x="94" y="0" width="2" height="44" fill="#1A1A1A"></rect>
    <rect x="98" y="0" width="3" height="44" fill="#1A1A1A"></rect>
    <rect x="103" y="0" width="1.5" height="44" fill="#1A1A1A"></rect>
    <rect x="107" y="0" width="4" height="44" fill="#1A1A1A"></rect>
    <rect x="114" y="0" width="2" height="44" fill="#1A1A1A"></rect>
    <rect x="118" y="0" width="3" height="44" fill="#1A1A1A"></rect>
    <rect x="123" y="0" width="1.5" height="44" fill="#1A1A1A"></rect>
    <rect x="127" y="0" width="4" height="44" fill="#1A1A1A"></rect>
    <rect x="133" y="0" width="2" height="44" fill="#1A1A1A"></rect>
    <rect x="137" y="0" width="3" height="44" fill="#1A1A1A"></rect>
    <rect x="142" y="0" width="1.5" height="44" fill="#1A1A1A"></rect>
    <rect x="146" y="0" width="4" height="44" fill="#1A1A1A"></rect>
    <rect x="153" y="0" width="3" height="44" fill="#1A1A1A"></rect>
    <rect x="158" y="0" width="1.5" height="44" fill="#1A1A1A"></rect>
    <rect x="162" y="0" width="4" height="44" fill="#1A1A1A"></rect>
  </g>
  <text font-family="monospace" font-size="9" fill="#888" text-anchor="middle" x="110" y="336">2026050900001</text>
</svg>