<svg xmlns="http://www.w3.org/2000/svg" viewBox="0 0 340 180" width="340" height="180">
  
  <polygon points="170,5 183,58 218,22 210,76 255,48 232,96 280,88 246,126 290,138 248,156 258,200 220,176 214,220 170,194 126,220 120,176 82,200 92,156 50,138 94,126 60,88 108,96 85,48 130,76 122,22 157,58" fill="#F1AD2B" stroke="#1A1A1A" stroke-width="3" transform="scale(0.95) translate(9,5)"></polygon>
  
  <circle cx="170" cy="115" r="82" fill="#E23A29"></circle>
  
  <text font-family="sans-serif" font-weight="900" font-size="20" fill="white" text-anchor="middle" x="170" y="95">SPECIAL</text>
  <text font-family="sans-serif" font-weight="900" font-size="20" fill="white" text-anchor="middle" x="170" y="120">OFFER</text>
  <text font-family="sans-serif" font-weight="900" font-size="28" fill="#F1AD2B" text-anchor="middle" x="170" y="148">TODAY!</text>
</svg>